<?xml version="1.0" encoding="UTF-8"?>
<svg width="700pt" height="700pt" fill="#fff" preserveAspectRatio="none" version="1.1" viewBox="0 0 700 550" xmlns="http://www.w3.org/2000/svg" xmlns:xlink="http://www.w3.org/1999/xlink">
  <path d="m449.93 139.82c-4.4531 0.21094-8.6406 2.1836-11.641 5.4805-3 3.3008-4.5664 7.6562-4.3516 12.109 0.21484 4.4531 2.1914 8.6406 5.4922 11.637l102.55 94.148h-427.18c-0.58203-0.027344-1.168-0.027344-1.75 0-8.7969 0.45703-16.383 8.8789-15.926 17.676s8.8789 16.383 17.676 15.926h427.18l-102.55 93.973c-3.5352 2.9492-5.7031 7.2148-6.0039 11.805-0.30078 4.5938 1.2969 9.1055 4.4141 12.488 3.1172 3.3828 7.4883 5.3359 12.086 5.4102 4.6016 0.070313 9.0312-1.7461 12.254-5.0273l134.4-123.2c3.4414-3.1797 5.3984-7.6523 5.3984-12.336 0-4.6875-1.957-9.1602-5.3984-12.34l-134.4-123.2c-3.3047-3.1094-7.7227-4.75-12.25-4.5508z"/>
</svg>
